Coordinates
version=1
nRows=22
nColumns=24
inDegrees=yes

Units are S.I. units (second, meters, Newtons, ...)
Angles are in degrees.

endheader
time	pelvis_tilt	pelvis_list	pelvis_rotation	pelvis_tx	pelvis_ty	pelvis_tz	hip_flexion_r	hip_adduction_r	hip_rotation_r	knee_angle_r	ankle_angle_r	subtalar_angle_r	mtp_angle_r	hip_flexion_l	hip_adduction_l	hip_rotation_l	knee_angle_l	ankle_angle_l	subtalar_angle_l	mtp_angle_l	lumbar_extension	lumbar_bending	lumbar_rotation
      4.41500000	     -9.28196653	      8.31959076	    353.99485519	      0.79219306	      1.35864907	     -0.99314218	      4.72850791	     -5.87176760	      6.97123365	    -39.35244933	     -2.22003219	     -1.18894663	     27.59976385	     29.81971813	      8.76353198	     -1.45319912	     -9.98297393	    -13.02839160	     -9.82411468	     32.58630288	     -7.47969217	     -6.41535757	     13.66409847
      4.42000000	     -9.10091510	      8.39050577	    354.20636289	      0.79828929	      1.35932659	     -0.99394166	      5.14464692	     -6.06351084	      6.81124123	    -40.69674125	     -3.30153039	     -0.85257462	     28.27737150	     29.56834049	      9.05893948	     -1.28143573	    -10.55160415	    -12.79616675	     -9.90145855	     32.20682058	     -7.65239316	     -6.48328217	     13.32811021
      4.42500000	     -8.92949490	      8.45402930	    354.42446753	      0.80437068	      1.35999406	     -0.99477521	      5.57832678	     -6.24323011	      6.66881508	    -42.00553574	     -4.32413932	     -0.60082658	     28.93255666	     29.28396511	      9.35256568	     -1.09097314	    -11.04508709	    -12.49904618	     -9.91053138	     31.76079468	     -7.78572697	     -6.56964672	     13.12616747
      4.43000000	     -8.78324196	      8.49242963	    354.65806252	      0.81037733	      1.36063416	     -0.99567506	      6.04897934	     -6.39688073	      6.52212125	    -43.29264209	     -5.14871012	     -0.25353679	     29.33820556	     29.00189393	      9.62746931	     -0.91795479	    -11.49089858	    -12.18261694	     -9.90894402	     31.39008738	     -7.90611626	     -6.59483547	     12.84506749
      4.43500000	     -8.61763427	      8.52382564	    354.88172576	      0.81631198	      1.36129541	     -0.99659506	      6.50896918	     -6.54505817	      6.39080626	    -44.54624477	     -5.77105992	      0.15908525	     29.55585378	     28.66249675	      9.89264578	     -0.78962124	    -11.85847009	    -11.87459730	     -9.90430368	     31.22262019	     -8.05375494	     -6.59695140	     12.54594652
      4.44000000	     -8.52767965	      8.51870597	    355.12540365	      0.82216413	      1.36188822	     -0.99759386	      7.05888008	     -6.64476505	      6.26687229	    -45.76671309	     -6.25535524	      0.54540597	     29.77573603	     28.38504832	     10.12446871	     -0.62181247	    -12.19601683	    -11.54140889	     -9.87410888	     30.93917914	     -8.12019885	     -6.54098486	     12.26940513
      4.44500000	     -8.41149624	      8.50686541	    355.35370667	      0.82794504	      1.36252856	     -0.99859618	      7.58605659	     -6.73691526	      6.16099168	    -46.93534544	     -6.58538331	      0.90407394	     29.93764012	     28.04152486	     10.34652986	     -0.46898069	    -12.45977867	    -11.19832089	     -9.82358763	     30.63877753	     -8.20918220	     -6.48300792	     12.03628948
      4.45000000	     -8.35268970	      8.47510881	    355.58759493	      0.83366499	      1.36313115	     -0.99963678	      8.18242846	     -6.79872564	      6.06502997	    -48.06233256	     -6.78271110	      1.20672731	     30.03030907	     27.73696638	     10.54621485	     -0.27767020	    -12.68754824	    -10.81702554	     -9.74026387	     30.21288819	     -8.22426834	     -6.39693842	     11.84200787
      4.45500000	     -8.29012481	      8.41464662	    355.79167117	      0.83923863	      1.36376319	     -1.00067549	      8.79218637	     -6.82384435	      6.00269466	    -49.14487735	     -6.80202692	      1.55989927	     30.11236827	     27.41720153	     10.69983369	     -0.14316919	    -12.87668087	    -10.49774892	     -9.71799638	     30.03577236	     -8.26939439	     -6.25591122	     11.63002364
      4.46000000	     -8.28896597	      8.34942742	    356.00885318	      0.84477377	      1.36435315	     -1.00174977	      9.47491561	     -6.83947984	      5.93479362	    -50.18573225	     -6.71938051	      1.85052780	     30.09685104	     27.14442663	     10.85102683	      0.06534447	    -13.03693635	    -10.13322817	     -9.67476618	     29.66041074	     -8.22855945	     -6.11145481	     11.45516403
      4.46500000	     -8.27423759	      8.26532195	    356.19991722	      0.85017943	      1.36497704	     -1.00280639	     10.15661581	     -6.82822847	      5.88976004	    -51.17576056	     -6.49499918	      2.11259994	     30.07222758	     26.85133110	     10.97032766	      0.25252884	    -13.17804122	     -9.78827561	     -9.65276715	     29.35029787	     -8.21714408	     -5.93985566	     11.30322544
      4.47000000	     -8.32233369	      8.16576622	    356.37888355	      0.85550160	      1.36556984	     -1.00386160	     10.92214346	     -6.78935233	      5.86329158	    -52.12338446	     -6.18118061	      2.32611708	     30.01724433	     26.62549536	     11.06019025	      0.45305724	    -13.31436956	     -9.45393738	     -9.64391968	     28.99720674	     -8.13659406	     -5.74176001	     11.17804340
      4.47500000	     -8.33973123	      8.06510365	    356.52106292	      0.86072299	      1.36622036	     -1.00486045	     11.66753888	     -6.74244474	      5.87000361	    -53.01087970	     -5.78134262	      2.55064745	     30.03914975	     26.35770738	     11.12971325	      0.62125954	    -13.41720083	     -9.16048335	     -9.65077646	     28.78043523	     -8.10293525	     -5.53274767	     11.03713369
      4.48000000	     -8.44060960	      7.95522709	    356.66592470	      0.86589506	      1.36679940	     -1.00586798	     12.51545466	     -6.67499776	      5.87849258	    -53.85645343	     -5.32026806	      2.68659068	     29.98248539	     26.18686446	     11.18422924	      0.84347180	    -13.53910782	     -8.83587264	     -9.67615513	     28.46169489	     -7.96413580	     -5.31368730	     10.93928849
      4.48500000	     -8.54802930	      7.84863073	    356.78997810	      0.87093638	      1.36738397	     -1.00684442	     13.39305837	     -6.60686533	      5.89303231	    -54.66237498	     -4.81838004	      2.76918511	     29.86360985	     26.04486467	     11.22863398	      1.03164519	    -13.69172967	     -8.51791824	     -9.68342710	     28.06521335	     -7.83663480	     -5.09993010	     10.88135810
      4.49000000	     -8.64924027	      7.74721486	    356.87933890	      0.87598460	      1.36800469	     -1.00773680	     14.26277261	     -6.52922047	      5.94629653	    -55.39318013	     -4.26179196	      2.83707036	     29.78388011	     25.87421761	     11.25934609	      1.22749482	    -13.79895813	     -8.19565224	     -9.70139219	     27.68718913	     -7.70167351	     -4.88950895	     10.81598974
      4.49500000	     -8.76894160	      7.64025015	    356.95617444	      0.88093618	      1.36862887	     -1.00857963	     15.16500333	     -6.43561937	      6.00162955	    -56.07056415	     -3.69416913	      2.82299943	     29.67160905	     25.74217697	     11.27201108	      1.40594164	    -13.93901769	     -7.88216211	     -9.70707205	     27.31011348	     -7.55813116	     -4.68368062	     10.79021151
      4.50000000	     -8.89107764	      7.54124720	    357.01161846	      0.88585413	      1.36926252	     -1.00936927	     16.07398994	     -6.34305347	      6.07222481	    -56.68485097	     -3.09653596	      2.80699848	     29.56324559	     25.61167579	     11.27958304	      1.57171137	    -14.06975947	     -7.56562957	     -9.69697121	     26.90582459	     -7.41402219	     -4.47781860	     10.75655579
      4.50500000	     -9.01703539	      7.44050716	    357.04602822	      0.89073735	      1.36991919	     -1.01007766	     16.99105825	     -6.23464002	      6.15382475	    -57.23396779	     -2.50480373	      2.73105273	     29.44671951	     25.48560008	     11.26935115	      1.71647644	    -14.20214664	     -7.25069734	     -9.67810163	     26.52507304	     -7.26309616	     -4.27641206	     10.74135311
      4.51000000	     -9.12100584	      7.32753899	    357.08068871	      0.89558535	      1.37062564	     -1.01074911	     17.87374025	     -6.11362732	      6.21350467	    -57.70664383	     -1.89444778	      2.63957969	     29.24685249	     25.33567869	     11.24561349	      1.86066231	    -14.34044176	     -6.90834057	     -9.58241551	     25.97009529	     -7.14133303	     -4.07509294	     10.77324489
      4.51500000	     -9.22631681	      7.23939382	    357.07785277	      0.90041458	      1.37132880	     -1.01128749	     18.76890258	     -5.99801580	      6.31318372	    -58.12225081	     -1.29435346	      2.53222086	     29.18787998	     25.17712809	     11.21785533	      1.93671875	    -14.43921639	     -6.64789629	     -9.52602878	     25.66516907	     -7.02168449	     -3.89289483	     10.73997632
      4.52000000	     -9.32018260	      7.15757146	    357.06265614	      0.90524820	      1.37205687	     -1.01173855	     19.64804787	     -5.87920614	      6.41193653	    -58.47066731	     -0.73411584	      2.38342693	     29.09152506	     24.99450702	     11.18645772	      2.00654597	    -14.51918008	     -6.33633101	     -9.44289322	     25.33255030	     -6.91019843	     -3.73031996	     10.71612547
